<svg width="201" height="201" viewBox="0 0 201 201" fill="none" xmlns="http://www.w3.org/2000/svg">
<circle cx="100.5" cy="100.5" r="100.5" fill="#0B7077"/>
<path d="M94.5381 158V160.947H103.641V163.894H94.8655V166.819H103.641V169.679H94.5381V172.626H106.916V158H94.5381Z" fill="white"/>
<path d="M90.8613 158.26L87.2998 161.209L87.1295 161.17L85.115 156.948L81.2203 156.059L84.277 162.288L84.2333 162.479L78.7867 166.722L82.6388 167.601L86.2052 164.631L86.3755 164.67L88.3851 168.913L92.2798 169.802L89.228 163.552L89.2668 163.382L94.7134 159.139L90.8613 158.26Z" fill="white"/>
<path d="M78.9338 151.885L76.045 157.884L75.9073 157.818C76.4064 155.926 75.6876 154.199 73.4061 153.1C70.4362 151.67 67.8275 152.861 66.3215 155.988C64.8155 159.115 65.5408 161.936 68.5697 163.394C70.8905 164.512 72.6323 164.115 73.8956 162.398L74.0923 162.492L72.7947 165.187L75.5285 166.503L81.884 153.306L78.9338 151.885ZM75.022 160.008L74.9462 160.166C74.1033 161.916 72.8073 162.091 70.8995 161.173C69.0311 160.273 68.4396 159.237 69.311 157.428C70.1729 155.638 71.3611 155.435 73.2492 156.344C75.098 157.234 75.8366 158.317 75.022 160.008Z" fill="white"/>
<path d="M61.5381 147.745L52.4189 159.18L54.979 161.222L64.0982 149.787L61.5381 147.745Z" fill="white"/>
<path d="M50.7411 138.891C48.4136 135.973 45.1076 135.398 42.4109 137.549C39.6802 139.726 39.5216 143.064 41.849 145.982C44.1765 148.901 47.4655 149.489 50.1962 147.311C52.8928 145.161 53.0685 141.81 50.7411 138.891ZM48.4711 140.701C49.8594 142.442 49.6702 143.57 48.1682 144.768C46.6663 145.966 45.4902 145.927 44.1019 144.186C42.7272 142.462 42.937 141.289 44.4389 140.092C45.9408 138.894 47.0964 138.978 48.4711 140.701Z" fill="white"/>
<path d="M43.2247 128.747L37.521 131.494C36.2819 132.09 35.4449 131.912 34.8103 130.594C34.2325 129.395 34.4962 128.735 35.5779 128.214L36.6006 127.721L35.1799 124.771L33.5475 125.557C31.62 126.485 30.5413 128.119 31.6021 130.322C32.5587 132.309 34.2801 132.764 36.0058 132.272L36.0911 132.449L33.4752 133.709L34.7918 136.442L44.6454 131.697L43.2247 128.747Z" fill="white"/>
<path d="M37.3041 113.136C36.5317 109.753 34.3994 107.866 32.0796 108.395L31.8455 108.449L32.5741 111.641L32.7869 111.593C33.7021 111.384 34.3422 111.932 34.7745 113.826C35.2457 115.89 34.7182 116.817 33.0989 117.276L31.117 108.593C30.7455 108.633 30.4591 108.653 30.076 108.741C26.7347 109.503 25.4339 112.241 26.2305 115.731C27.032 119.243 29.7304 121.157 33.1356 120.38C36.9239 119.515 38.1153 116.691 37.3041 113.136ZM28.7351 115.227C28.3077 113.354 28.7306 112.362 30.1158 111.956L31.4079 117.617C29.9905 117.784 29.1675 117.121 28.7351 115.227Z" fill="white"/>
<path d="M37.132 89.6366L29.8959 87.9851L27.6321 87.6027L27.6856 87.3686L30.1097 87.0486L37.1745 85.5264L38.0586 81.6529L32.3539 77.2161L30.3087 75.8761L30.3621 75.642L32.5725 76.2584L39.8085 77.91L40.5371 74.7176L26.2779 71.463L25.2869 75.8047L31.5718 80.6426L34.6168 82.7035L34.5634 82.9376L30.916 83.5157L23.1302 85.2541L22.1441 89.5744L36.4033 92.829L37.132 89.6366Z" fill="white"/>
<path d="M44.558 71.9886C46.1777 68.6253 45.2608 65.3974 42.1532 63.9009C39.0064 62.3855 35.9307 63.6906 34.311 67.0539C32.6914 70.4171 33.5886 73.6355 36.7355 75.151C39.843 76.6475 42.9384 75.3518 44.558 71.9886ZM41.9422 70.7288C40.9761 72.735 39.8775 73.054 38.1468 72.2205C36.416 71.387 35.9411 70.3102 36.9072 68.3041C37.8638 66.3176 39.0112 65.9979 40.742 66.8314C42.4728 67.6649 42.8988 68.7424 41.9422 70.7288Z" fill="white"/>
<path d="M51.696 62.5608L46.7465 58.6137C45.6713 57.7562 45.4689 56.9247 46.3808 55.7812C47.211 54.7401 47.9201 54.6913 48.8588 55.4398L49.7463 56.1476L51.7879 53.5875L50.3713 52.4578C48.6987 51.124 46.7584 50.8611 45.234 52.7726C43.8594 54.4964 44.1962 56.2448 45.3881 57.5862L45.2656 57.7398L42.9956 55.9296L41.1037 58.3019L49.6544 65.1209L51.696 62.5608Z" fill="white"/>
<path d="M64.187 53.4217C66.9007 51.2576 67.6754 48.5178 66.1919 46.6574L66.0422 46.4697L63.4821 48.5113L63.6182 48.682C64.2034 49.4159 63.9874 50.2303 62.4684 51.4417C60.8129 52.7619 59.7493 52.6887 58.633 51.429L65.5965 45.8758C65.3992 45.5584 65.2564 45.3093 65.0114 45.0021C62.8746 42.3226 59.8437 42.3384 57.0447 44.5705C54.2286 46.8163 53.6747 50.0781 55.8524 52.8088C58.2751 55.8468 61.3368 55.6947 64.187 53.4217ZM58.5859 46.6082C60.0878 45.4105 61.1652 45.361 62.1318 46.433L57.5919 50.0534C56.8267 48.8488 57.0669 47.8196 58.5859 46.6082Z" fill="white"/>
<path d="M91.1449 39.5032L90.5183 36.7577L82.5799 38.5696L83.2066 41.3151L91.1449 39.5032Z" fill="white"/>
<path d="M119.363 46.8076L120.018 43.9344L111.144 41.9088L111.799 39.0357L120.355 40.9884L121.006 38.1366L112.45 36.1838L113.087 33.3958L121.961 35.4214L122.617 32.5483L110.55 29.7941L107.295 44.0533L119.363 46.8076Z" fill="white"/>
<path d="M123.363 47.5401L127.492 45.4578L127.649 45.5335L128.674 50.0975L132.273 51.8308L130.679 45.0785L130.764 44.9015L137.018 41.9771L133.458 40.2628L129.32 42.3648L129.163 42.289L128.148 37.7054L124.549 35.9721L126.133 42.7441L126.057 42.9015L119.803 45.8258L123.363 47.5401Z" fill="white"/>
<path d="M134.48 55.8958L138.632 50.6903L138.751 50.7856C137.843 52.5189 138.16 54.3628 140.14 55.9416C142.717 57.9968 145.525 57.4163 147.689 54.7026C149.853 51.9889 149.774 49.0776 147.146 46.9815C145.132 45.3755 143.345 45.3748 141.731 46.7683L141.561 46.6322L143.425 44.294L141.053 42.4021L131.92 53.8542L134.48 55.8958ZM140.102 48.847L140.21 48.7105C141.422 47.1915 142.724 47.3088 144.38 48.6291C146.001 49.9221 146.347 51.0636 145.095 52.6338C143.857 54.1869 142.653 54.1206 141.015 52.814C139.41 51.5346 138.931 50.3148 140.102 48.847Z" fill="white"/>
<path d="M150.606 63.9844L162.041 54.8653L159.999 52.3052L148.564 61.4243L150.606 63.9844Z" fill="white"/>
<path d="M158.587 76.0976C160.207 79.4608 163.302 80.7565 166.41 79.26C169.557 77.7446 170.454 74.5261 168.834 71.1629C167.215 67.7997 164.139 66.4945 160.992 68.01C157.885 69.5065 156.968 72.7344 158.587 76.0976ZM161.203 74.8379C160.237 72.8318 160.673 71.774 162.404 70.9405C164.134 70.107 165.272 70.407 166.238 72.4132C167.195 74.3996 166.73 75.496 164.999 76.3295C163.268 77.163 162.16 76.8243 161.203 74.8379Z" fill="white"/>
<path d="M163.602 87.7425L169.774 86.3338C171.115 86.0278 171.891 86.388 172.217 87.8139C172.513 89.1121 172.109 89.6969 170.939 89.9641L169.832 90.2167L170.561 93.409L172.327 93.0059C174.413 92.5298 175.828 91.1768 175.284 88.7931C174.793 86.6436 173.216 85.8168 171.425 85.9123L171.381 85.7208L174.211 85.0747L173.536 82.1165L162.874 84.5501L163.602 87.7425Z" fill="white"/>
<path d="M165.865 104.353C165.865 107.824 167.524 110.138 169.903 110.138H170.143V106.863H169.925C168.986 106.863 168.484 106.187 168.484 104.244C168.484 102.126 169.205 101.34 170.886 101.253V110.16C171.257 110.203 171.54 110.247 171.933 110.247C175.361 110.247 177.238 107.867 177.238 104.287C177.238 100.685 175.033 98.2187 171.54 98.2187C167.655 98.2187 165.865 100.707 165.865 104.353ZM174.684 104.222C174.684 106.143 174.051 107.016 172.61 107.103V101.297C174.029 101.45 174.684 102.279 174.684 104.222Z" fill="white"/>
<path d="M159.109 126.322L165.796 129.542L167.918 130.419L167.814 130.635L165.38 130.408L158.153 130.32L156.429 133.899L161.004 139.494L162.699 141.256L162.595 141.472L160.577 140.379L153.89 137.159L152.47 140.109L165.647 146.455L167.579 142.443L162.529 136.328L160.018 133.641L160.123 133.425L163.807 133.672L171.785 133.71L173.707 129.718L160.53 123.372L159.109 126.322Z" fill="white"/>
<path d="M148.128 141.773C145.801 144.691 145.976 148.042 148.673 150.193C151.404 152.37 154.693 151.782 157.02 148.864C159.347 145.945 159.189 142.608 156.458 140.43C153.761 138.28 150.455 138.854 148.128 141.773ZM150.398 143.583C151.786 141.842 152.928 141.776 154.43 142.973C155.932 144.171 156.155 145.326 154.767 147.067C153.392 148.791 152.203 148.847 150.701 147.65C149.199 146.452 149.023 145.307 150.398 143.583Z" fill="white"/>
<path d="M138.642 148.532L142.589 153.481C143.446 154.557 143.458 155.412 142.315 156.324C141.274 157.154 140.572 157.044 139.823 156.106L139.115 155.218L136.555 157.26L137.685 158.676C139.019 160.349 140.852 161.037 142.763 159.513C144.487 158.138 144.548 156.358 143.684 154.785L143.838 154.663L145.648 156.933L148.021 155.041L141.202 146.49L138.642 148.532Z" fill="white"/>
<path d="M124.857 154.498C121.73 156.004 120.365 158.503 121.397 160.647L121.501 160.863L124.452 159.442L124.357 159.246C123.95 158.4 124.341 157.654 126.092 156.811C128 155.892 129.02 156.2 129.828 157.677L121.804 161.541C121.925 161.895 122.009 162.169 122.18 162.523C123.667 165.611 126.625 166.27 129.851 164.717C133.096 163.154 134.362 160.097 132.846 156.95C131.16 153.449 128.141 152.916 124.857 154.498ZM128.801 162.387C127.071 163.221 126.009 163.029 125.305 161.769L130.537 159.25C131.015 160.594 130.552 161.544 128.801 162.387Z" fill="white"/>
<path d="M126.522 96.6051C130.29 98.7806 130.29 104.219 126.522 106.395L94.7283 124.751C90.9601 126.926 86.25 124.207 86.25 119.856L86.25 83.144C86.25 78.793 90.9601 76.0736 94.7283 78.2491L126.522 96.6051Z" fill="white"/>
</svg>
